<?xml version="1.0" encoding="UTF-8" standalone="no"?>
<!DOCTYPE svg PUBLIC "-//W3C//DTD SVG 1.1//EN" "http://www.w3.org/Graphics/SVG/1.1/DTD/svg11.dtd">
<svg width="100%" height="100%" viewBox="0 0 1040 329" version="1.1" xmlns="http://www.w3.org/2000/svg" xmlns:xlink="http://www.w3.org/1999/xlink" xml:space="preserve" xmlns:serif="http://www.serif.com/" style="fill-rule:evenodd;clip-rule:evenodd;stroke-linejoin:round;stroke-miterlimit:2;">
    <g id="logo" transform="matrix(2.02242,0,0,2.02242,-536.469,-449.001)">
        <g id="Logo" transform="matrix(1,0,0,1,0.72399,0)">
            <g transform="matrix(0.90983,0,0,0.90983,64.1512,31.353)">
                <path d="M444.245,323.737C448.98,323.737 453.312,322.844 457.245,321.079C461.296,319.26 464.493,316.626 466.849,313.195C469.23,309.728 470.435,305.744 470.435,301.233C470.435,290.73 462.263,282.631 445.216,277.702C439.382,276.066 434.517,273.864 430.616,271.062C427.146,268.57 425.427,265.109 425.427,260.693C425.427,256.384 427.158,252.916 430.611,250.286C434.294,247.482 438.884,246.119 444.357,246.119C448.785,246.119 452.706,247.02 456.112,248.859C459.431,250.652 462.005,253.421 463.863,257.138L464.85,259.112L471.406,256.132L470.45,254.044C468.236,249.206 464.698,245.426 459.818,242.72C455.045,240.073 449.892,238.747 444.357,238.747C439.794,238.747 435.532,239.593 431.569,241.274C427.481,243.009 424.226,245.558 421.789,248.903C419.314,252.301 418.056,256.301 418.056,260.916C418.056,266.539 420.324,271.487 424.939,275.725C429.269,279.701 435.389,282.753 443.339,284.8C448.519,286.148 453.226,288.204 457.453,290.975C461.192,293.426 463.063,296.882 463.063,301.344C463.063,304.335 462.268,306.964 460.645,309.222C458.98,311.54 456.737,313.31 453.929,314.55C451.008,315.841 447.778,316.477 444.245,316.477C439.689,316.477 435.489,315.306 431.646,312.959C427.863,310.65 425.127,307.56 423.454,303.677L422.578,301.644L415.799,304.297L416.656,306.439C418.774,311.734 422.351,315.956 427.402,319.093C432.376,322.181 437.988,323.737 444.245,323.737L444.245,323.737Z" style="fill:rgb(230,230,230);"/>
            </g>
            <g transform="matrix(1,0,0,1.25769,3.02793,-57.7251)">
                <path d="M517.727,222.424L517.846,351.676L521.774,351.674L521.656,222.422L517.727,222.424Z" style="fill:rgb(230,230,230);"/>
            </g>
            <g transform="matrix(0.90983,0,0,0.90983,173.118,31.353)">
                <path d="M424.869,292.131L424.869,322.62L417.609,322.62L417.609,239.864L437.991,239.864C442.58,239.864 446.841,241.032 450.775,243.368C454.689,245.692 457.788,248.812 460.071,252.727C462.361,256.652 463.51,260.945 463.51,265.607C463.51,270.616 462.151,275.152 459.44,279.218C456.771,283.221 453.255,286.378 448.888,288.684C444.527,290.985 439.964,292.131 435.199,292.131L424.869,292.131ZM424.869,284.871L435.199,284.871C438.764,284.871 442.16,283.993 445.388,282.244C448.623,280.492 451.237,278.118 453.226,275.119C455.164,272.194 456.139,269.024 456.139,265.607C456.139,262.291 455.328,259.206 453.703,256.354C452.079,253.505 449.878,251.25 447.095,249.594C444.321,247.943 441.248,247.124 437.879,247.124L424.869,247.124L424.869,284.871Z" style="fill:rgb(230,230,230);"/>
            </g>
        </g>
        <g transform="matrix(1,0,0,1,-0.833337,-41)">
            <g transform="matrix(1,0,0,1,3.95566,0)">
                <path d="M273.318,424.824C274.868,424.824 276.286,424.533 277.573,423.955C278.886,423.366 279.923,422.513 280.687,421.401C281.456,420.281 281.843,418.993 281.843,417.536C281.843,414.107 279.137,411.503 273.57,409.894C271.579,409.335 269.918,408.581 268.585,407.624C267.347,406.735 266.731,405.5 266.731,403.924C266.731,402.388 267.347,401.153 268.578,400.215C269.858,399.24 271.453,398.761 273.356,398.761C274.891,398.761 276.25,399.076 277.431,399.714C278.593,400.341 279.496,401.309 280.146,402.61L280.362,403.041L282.082,402.259L281.873,401.803C281.154,400.231 280.003,399.004 278.417,398.124C276.855,397.258 275.168,396.824 273.356,396.824C271.861,396.824 270.465,397.1 269.167,397.651C267.841,398.213 266.785,399.039 265.995,400.123C265.197,401.219 264.793,402.51 264.793,403.999C264.793,405.812 265.529,407.407 267.018,408.773C268.444,410.083 270.462,411.084 273.081,411.758C274.85,412.219 276.457,412.921 277.901,413.867C279.237,414.743 279.906,415.979 279.906,417.574C279.906,418.638 279.621,419.572 279.044,420.376C278.457,421.192 277.668,421.817 276.679,422.254C275.665,422.702 274.544,422.924 273.318,422.924C271.738,422.924 270.281,422.517 268.948,421.703C267.628,420.897 266.674,419.818 266.09,418.464L265.899,418.02L264.117,418.717L264.304,419.185C264.994,420.909 266.16,422.284 267.805,423.305C269.433,424.316 271.27,424.824 273.318,424.824Z" style="fill:rgb(230,230,230);"/>
            </g>
            <g transform="matrix(1,0,0,1,3.95566,0)">
                <path d="M299.261,419.761L297.799,424.449L295.814,424.449L304.416,396.8L305.371,396.801L313.934,424.449L311.916,424.449L310.416,419.761L299.261,419.761ZM299.908,417.824L309.842,417.824L304.892,401.652L299.908,417.824Z" style="fill:rgb(230,230,230);"/>
            </g>
            <g transform="matrix(1,0,0,1,3.95566,0)">
                <path d="M345.118,419.496L345.118,397.199L347.056,397.199L347.056,424.324L346.138,424.598L331.268,401.923L331.268,424.374L329.368,424.374L329.368,397.099L330.287,396.825L345.118,419.496Z" style="fill:rgb(230,230,230);"/>
            </g>
            <g transform="matrix(1,0,0,1,3.95566,0)">
                <path d="M368.081,397.199L363.193,397.199L363.193,424.449L368.081,424.449C370.621,424.449 372.941,423.851 375.04,422.659C377.143,421.465 378.804,419.836 380.024,417.772C381.244,415.708 381.856,413.429 381.856,410.936C381.856,408.471 381.239,406.181 380.007,404.066C378.775,401.953 377.102,400.28 374.989,399.048C372.874,397.816 370.572,397.199 368.081,397.199ZM365.093,422.549L368.043,422.549C370.227,422.549 372.22,422.035 374.02,421.003C375.819,419.971 377.246,418.568 378.301,416.793C379.355,415.021 379.881,413.068 379.881,410.936C379.881,408.802 379.354,406.83 378.299,405.019C377.243,403.207 375.802,401.767 373.978,400.699C372.156,399.632 370.177,399.099 368.043,399.099L365.093,399.099L365.093,422.549Z" style="fill:rgb(230,230,230);"/>
            </g>
            <g transform="matrix(1,0,0,1,3.95566,0)">
                <path d="M399.518,415.261L399.518,424.449L397.618,424.449L397.618,397.199L404.531,397.199C406.122,397.199 407.594,397.597 408.947,398.393C410.296,399.187 411.368,400.258 412.162,401.608C412.957,402.96 413.356,404.444 413.356,406.061C413.356,407.867 412.819,409.521 411.744,411.021C410.783,412.362 409.591,413.397 408.17,414.127L413.408,424.449L411.275,424.449L406.377,414.84C405.412,415.121 404.446,415.261 403.481,415.261L399.518,415.261ZM399.518,413.286L403.443,413.286C404.812,413.286 406.111,412.967 407.338,412.33C408.56,411.696 409.535,410.828 410.263,409.724C410.984,408.631 411.343,407.41 411.343,406.061C411.343,404.826 411.034,403.671 410.416,402.599C409.797,401.524 408.962,400.671 407.911,400.04C406.865,399.412 405.726,399.099 404.493,399.099L399.518,399.099L399.518,413.286Z" style="fill:rgb(230,230,230);"/>
            </g>
            <g transform="matrix(1,0,0,1,3.95566,0)">
                <path d="M441.131,424.824C443.501,424.824 445.701,424.193 447.732,422.93C449.756,421.672 451.358,419.967 452.538,417.814C453.716,415.665 454.306,413.335 454.306,410.824C454.306,408.313 453.716,405.983 452.538,403.834C451.358,401.681 449.756,399.976 447.732,398.718C445.701,397.455 443.501,396.824 441.131,396.824C438.735,396.824 436.528,397.456 434.509,398.719C432.499,399.977 430.904,401.681 429.724,403.834C428.546,405.983 427.956,408.313 427.956,410.824C427.956,413.335 428.546,415.665 429.724,417.814C430.904,419.967 432.499,421.671 434.509,422.929C436.528,424.192 438.735,424.824 441.131,424.824ZM441.131,422.924C439.102,422.924 437.235,422.387 435.528,421.313C433.812,420.233 432.446,418.762 431.426,416.902C430.403,415.039 429.893,413.012 429.893,410.824C429.893,408.635 430.398,406.608 431.408,404.743C432.415,402.885 433.782,401.415 435.508,400.335C437.227,399.261 439.102,398.724 441.131,398.724C443.159,398.724 445.027,399.261 446.733,400.335C448.449,401.415 449.816,402.886 450.836,404.746C451.858,406.609 452.368,408.636 452.368,410.824C452.368,413.013 451.864,415.04 450.854,416.904C449.846,418.763 448.48,420.233 446.753,421.312C445.034,422.387 443.16,422.924 441.131,422.924Z" style="fill:rgb(230,230,230);"/>
            </g>
            <path d="M495.106,414.961L495.106,425.199L491.706,425.199L491.706,396.449L499.031,396.449C500.66,396.449 502.173,396.864 503.569,397.693C504.955,398.516 506.052,399.621 506.861,401.007C507.673,402.399 508.081,403.921 508.081,405.574C508.081,407.354 507.597,408.966 506.633,410.411C505.693,411.822 504.454,412.936 502.914,413.748C501.379,414.559 499.771,414.961 498.093,414.961L495.106,414.961ZM495.106,411.561L498.093,411.561C499.21,411.561 500.274,411.285 501.286,410.737C502.301,410.187 503.121,409.443 503.745,408.502C504.342,407.602 504.643,406.626 504.643,405.574C504.643,404.546 504.392,403.589 503.889,402.705C503.386,401.823 502.704,401.124 501.842,400.611C500.984,400.1 500.034,399.849 498.993,399.849L495.106,399.849L495.106,411.561Z" style="fill:rgb(230,230,230);"/>
            <path d="M550.556,425.574C552.218,425.574 553.738,425.259 555.118,424.639C556.563,423.99 557.702,423.049 558.543,421.825C559.396,420.582 559.831,419.154 559.831,417.536C559.831,413.836 557.021,410.909 551.016,409.173C549.114,408.64 547.529,407.926 546.26,407.015C545.226,406.273 544.718,405.239 544.718,403.924C544.718,402.635 545.237,401.599 546.269,400.812C547.427,399.931 548.873,399.511 550.593,399.511C551.994,399.511 553.235,399.792 554.312,400.374C555.342,400.93 556.136,401.792 556.713,402.945L557.252,404.023L560.314,402.631L559.793,401.491C559.006,399.773 557.751,398.429 556.018,397.468C554.344,396.539 552.536,396.074 550.593,396.074C548.994,396.074 547.5,396.371 546.111,396.961C544.654,397.579 543.495,398.489 542.627,399.682C541.737,400.903 541.281,402.34 541.281,403.999C541.281,406.02 542.089,407.803 543.748,409.326C545.251,410.706 547.372,411.774 550.132,412.484C551.817,412.923 553.351,413.592 554.727,414.494C555.838,415.222 556.393,416.249 556.393,417.574C556.393,418.471 556.159,419.261 555.672,419.938C555.162,420.648 554.473,421.188 553.613,421.568C552.691,421.976 551.671,422.174 550.556,422.174C549.117,422.174 547.79,421.804 546.576,421.063C545.395,420.342 544.539,419.379 544.016,418.167L543.538,417.057L540.378,418.294L540.845,419.463C541.595,421.337 542.859,422.832 544.646,423.942C546.392,425.026 548.36,425.574 550.556,425.574Z" style="fill:rgb(230,230,230);"/>
            <path d="M586.968,425.574C589.646,425.574 592.088,424.841 594.296,423.379L595.341,422.686L593.419,419.802L592.375,420.518C590.761,421.623 588.958,422.174 586.968,422.174C585.086,422.174 583.354,421.671 581.771,420.663C580.159,419.638 578.877,418.255 577.919,416.52C576.958,414.78 576.481,412.881 576.481,410.824C576.481,408.767 576.958,406.868 577.919,405.128C578.877,403.393 580.159,402.01 581.771,400.985C583.354,399.977 585.086,399.474 586.968,399.474C588.928,399.474 590.785,400.06 592.544,401.218L593.582,401.901L595.499,399.025L594.435,398.337C592.098,396.825 589.608,396.074 586.968,396.074C584.428,396.074 582.089,396.744 579.949,398.083C577.831,399.409 576.149,401.197 574.905,403.452C573.666,405.698 573.043,408.155 573.043,410.824C573.043,413.493 573.666,415.95 574.905,418.196C576.149,420.451 577.831,422.239 579.949,423.565C582.089,424.904 584.428,425.574 586.968,425.574Z" style="fill:rgb(230,230,230);"/>
            <path d="M613.043,412.236L623.781,412.236L623.781,396.449L627.181,396.449L627.181,425.199L623.781,425.199L623.781,415.711L613.043,415.711L613.043,425.199L609.643,425.199L609.643,396.449L613.043,396.449L613.043,412.236Z" style="fill:rgb(230,230,230);"/>
            <g transform="matrix(1,0,0,1.01424,0,-5.67872)">
                <rect x="642.193" y="396.449" width="3.4" height="28.75" style="fill:rgb(230,230,230);"/>
            </g>
            <path d="M676.018,416.98L676.018,396.449L679.456,396.449L679.456,424.324L677.161,425.009L663.668,404.435L663.668,425.124L660.268,425.124L660.268,397.099L662.564,396.415L676.018,416.98Z" style="fill:rgb(230,230,230);"/>
            <path d="M714.903,423.423C712.713,424.856 710.293,425.574 707.643,425.574C705.103,425.574 702.764,424.904 700.624,423.565C698.506,422.239 696.824,420.451 695.58,418.196C694.341,415.95 693.718,413.493 693.718,410.824C693.718,408.155 694.341,405.698 695.58,403.452C696.824,401.197 698.506,399.409 700.624,398.083C702.764,396.744 705.103,396.074 707.643,396.074C710.283,396.074 712.773,396.825 715.11,398.337L716.174,399.025L714.257,401.901L713.219,401.218C711.46,400.06 709.603,399.474 707.643,399.474C705.761,399.474 704.029,399.977 702.446,400.985C700.834,402.01 699.552,403.393 698.594,405.128C697.633,406.868 697.156,408.767 697.156,410.824C697.156,412.881 697.633,414.78 698.594,416.52C699.552,418.255 700.834,419.638 702.446,420.663C704.029,421.671 705.761,422.174 707.643,422.174C709.309,422.174 710.88,421.775 712.356,420.979L712.356,412.561L708.568,412.561L708.568,409.124L715.756,409.124L715.756,422.996L714.903,423.423Z" style="fill:rgb(230,230,230);"/>
            <path d="M733.793,421.799L745.643,421.799L745.643,425.199L730.393,425.199L730.393,396.449L745.643,396.449L745.643,399.849L733.793,399.849L733.793,405.561L745.343,405.561L745.343,408.961L733.793,408.961L733.793,421.799Z" style="fill:rgb(230,230,230);"/>
            <path d="M763.681,416.011L763.681,425.199L760.281,425.199L760.281,396.449L767.943,396.449C769.672,396.449 771.27,396.882 772.74,397.747C774.201,398.606 775.361,399.766 776.221,401.228C777.084,402.695 777.518,404.306 777.518,406.061C777.518,408.026 776.936,409.826 775.766,411.458C774.884,412.689 773.821,413.679 772.577,414.43L778.042,425.199L774.227,425.199L769.395,415.718C768.562,415.914 767.727,416.011 766.893,416.011L763.681,416.011ZM763.681,412.536L766.856,412.536C768.103,412.536 769.286,412.245 770.405,411.665C771.509,411.091 772.392,410.308 773.05,409.311C773.689,408.341 774.006,407.258 774.006,406.061C774.006,404.959 773.73,403.93 773.179,402.973C772.625,402.011 771.878,401.248 770.938,400.683C770.01,400.126 768.999,399.849 767.906,399.849L763.681,399.849L763.681,412.536Z" style="fill:rgb(230,230,230);"/>
        </g>
    </g>
</svg>
