<?xml version="1.0" encoding="UTF-8" standalone="no"?>
<svg
   xmlns:dc="http://purl.org/dc/elements/1.1/"
   xmlns:cc="http://creativecommons.org/ns#"
   xmlns:rdf="http://www.w3.org/1999/02/22-rdf-syntax-ns#"
   xmlns:svg="http://www.w3.org/2000/svg"
   xmlns="http://www.w3.org/2000/svg"
   xmlns:sodipodi="http://sodipodi.sourceforge.net/DTD/sodipodi-0.dtd"
   xmlns:inkscape="http://www.inkscape.org/namespaces/inkscape"
   inkscape:version="1.0 (4035a4fb49, 2020-05-01)"
   sodipodi:docname="logo.svg"
   id="svg62"
   style="fill-rule:evenodd;clip-rule:evenodd;stroke-linejoin:round;stroke-miterlimit:2;"
   xml:space="preserve"
   version="1.1"
   viewBox="0 0 1040 329"
   height="100%"
   width="100%"><metadata
   id="metadata68"><rdf:RDF><cc:Work
       rdf:about=""><dc:format>image/svg+xml</dc:format><dc:type
         rdf:resource="http://purl.org/dc/dcmitype/StillImage" /><dc:title></dc:title></cc:Work></rdf:RDF></metadata><defs
   id="defs66">
            
            
            
            
            
            
            
            
            
            
            
            
            
            
            
        
            
            
            
        </defs><sodipodi:namedview
   inkscape:pagecheckerboard="false"
   inkscape:current-layer="logo"
   inkscape:window-maximized="1"
   inkscape:window-y="27"
   inkscape:window-x="53"
   inkscape:cy="183.81693"
   inkscape:cx="375.59578"
   inkscape:zoom="0.70710678"
   inkscape:guide-bbox="true"
   showguides="true"
   showgrid="true"
   id="namedview64"
   inkscape:window-height="1016"
   inkscape:window-width="1867"
   inkscape:pageshadow="2"
   inkscape:pageopacity="0"
   guidetolerance="10"
   gridtolerance="10"
   objecttolerance="10"
   borderopacity="1"
   bordercolor="#666666"
   pagecolor="#a7a7a7"><inkscape:grid
     id="grid893"
     type="xygrid" /><sodipodi:guide
     id="guide895"
     orientation="0,1040"
     position="0,329" /><sodipodi:guide
     id="guide897"
     orientation="329,0"
     position="1040,329" /><sodipodi:guide
     id="guide899"
     orientation="0,-1040"
     position="1040,0" /><sodipodi:guide
     inkscape:color="rgb(0,0,255)"
     inkscape:locked="false"
     inkscape:label=""
     id="guide901"
     orientation="-1,0"
     position="583,249" /><sodipodi:guide
     id="guide959"
     orientation="1,0"
     position="330,299" /><sodipodi:guide
     inkscape:color="rgb(0,0,255)"
     inkscape:locked="false"
     inkscape:label=""
     id="guide961"
     orientation="-1,0"
     position="457,284" /></sodipodi:namedview>
    <g
   transform="matrix(2.02242,0,0,2.02242,-536.469,-449.001)"
   id="logo">
        <g
   style="fill:#ffffff;fill-opacity:1"
   transform="matrix(0.90983,0,0,0.90983,62.328515,31.353)"
   id="g4">
                <path
   d="m 444.245,323.737 c 4.735,0 9.067,-0.893 13,-2.658 4.051,-1.819 7.248,-4.453 9.604,-7.884 2.381,-3.467 3.586,-7.451 3.586,-11.962 0,-10.503 -8.172,-18.602 -25.219,-23.531 -5.834,-1.636 -10.699,-3.838 -14.6,-6.64 -3.47,-2.492 -5.189,-5.953 -5.189,-10.369 0,-4.309 1.731,-7.777 5.184,-10.407 3.683,-2.804 8.273,-4.167 13.746,-4.167 4.428,0 8.349,0.901 11.755,2.74 3.319,1.793 5.893,4.562 7.751,8.279 l 0.987,1.974 6.556,-2.98 -0.956,-2.088 c -2.214,-4.838 -5.752,-8.618 -10.632,-11.324 -4.773,-2.647 -9.926,-3.973 -15.461,-3.973 -4.563,0 -8.825,0.846 -12.788,2.527 -4.088,1.735 -7.343,4.284 -9.78,7.629 -2.475,3.398 -3.733,7.398 -3.733,12.013 0,5.623 2.268,10.571 6.883,14.809 4.33,3.976 10.45,7.028 18.4,9.075 5.18,1.348 9.887,3.404 14.114,6.175 3.739,2.451 5.61,5.907 5.61,10.369 0,2.991 -0.795,5.62 -2.418,7.878 -1.665,2.318 -3.908,4.088 -6.716,5.328 -2.921,1.291 -6.151,1.927 -9.684,1.927 -4.556,0 -8.756,-1.171 -12.599,-3.518 -3.783,-2.309 -6.519,-5.399 -8.192,-9.282 l -0.876,-2.033 -6.779,2.653 0.857,2.142 c 2.118,5.295 5.695,9.517 10.746,12.654 4.974,3.088 10.586,4.644 16.843,4.644 z"
   style="fill:#ffffff;fill-opacity:1"
   id="path2" />
            </g><g
   style="fill:#ffffff;fill-opacity:1"
   transform="matrix(0.90983,0,0,0.90983,173.57624,31.353)"
   id="g12">
                <path
   d="m 424.869,292.131 v 30.489 h -7.26 v -82.756 h 20.382 c 4.589,0 8.85,1.168 12.784,3.504 3.914,2.324 7.013,5.444 9.296,9.359 2.29,3.925 3.439,8.218 3.439,12.88 0,5.009 -1.359,9.545 -4.07,13.611 -2.669,4.003 -6.185,7.16 -10.552,9.466 -4.361,2.301 -8.924,3.447 -13.689,3.447 z m 0,-7.26 h 10.33 c 3.565,0 6.961,-0.878 10.189,-2.627 3.235,-1.752 5.849,-4.126 7.838,-7.125 1.938,-2.925 2.913,-6.095 2.913,-9.512 0,-3.316 -0.811,-6.401 -2.436,-9.253 -1.624,-2.849 -3.825,-5.104 -6.608,-6.76 -2.774,-1.651 -5.847,-2.47 -9.216,-2.47 h -13.01 z"
   style="fill:#ffffff;fill-opacity:1"
   id="path10" />
            </g>
        <g
   style="fill:#ffffff;fill-opacity:1"
   id="g957"><g
     style="fill:#ffffff;fill-opacity:1"
     id="g17"
     transform="translate(3.122323,-41)">
                <path
   id="path15"
   style="fill:#ffffff;fill-opacity:1"
   d="m 273.318,424.824 c 1.55,0 2.968,-0.291 4.255,-0.869 1.313,-0.589 2.35,-1.442 3.114,-2.554 0.769,-1.12 1.156,-2.408 1.156,-3.865 0,-3.429 -2.706,-6.033 -8.273,-7.642 -1.991,-0.559 -3.652,-1.313 -4.985,-2.27 -1.238,-0.889 -1.854,-2.124 -1.854,-3.7 0,-1.536 0.616,-2.771 1.847,-3.709 1.28,-0.975 2.875,-1.454 4.778,-1.454 1.535,0 2.894,0.315 4.075,0.953 1.162,0.627 2.065,1.595 2.715,2.896 l 0.216,0.431 1.72,-0.782 -0.209,-0.456 c -0.719,-1.572 -1.87,-2.799 -3.456,-3.679 -1.562,-0.866 -3.249,-1.3 -5.061,-1.3 -1.495,0 -2.891,0.276 -4.189,0.827 -1.326,0.562 -2.382,1.388 -3.172,2.472 -0.798,1.096 -1.202,2.387 -1.202,3.876 0,1.813 0.736,3.408 2.225,4.774 1.426,1.31 3.444,2.311 6.063,2.985 1.769,0.461 3.376,1.163 4.82,2.109 1.336,0.876 2.005,2.112 2.005,3.707 0,1.064 -0.285,1.998 -0.862,2.802 -0.587,0.816 -1.376,1.441 -2.365,1.878 -1.014,0.448 -2.135,0.67 -3.361,0.67 -1.58,0 -3.037,-0.407 -4.37,-1.221 -1.32,-0.806 -2.274,-1.885 -2.858,-3.239 l -0.191,-0.444 -1.782,0.697 0.187,0.468 c 0.69,1.724 1.856,3.099 3.501,4.12 1.628,1.011 3.465,1.519 5.513,1.519 z" />
            </g><g
     style="fill:#ffffff;fill-opacity:1"
     id="g21"
     transform="translate(3.122323,-41)">
                <path
   id="path19"
   style="fill:#ffffff;fill-opacity:1"
   d="m 299.261,419.761 -1.462,4.688 h -1.985 l 8.602,-27.649 0.955,10e-4 8.563,27.648 h -2.018 l -1.5,-4.688 z m 0.647,-1.937 h 9.934 l -4.95,-16.172 z" />
            </g><g
     style="fill:#ffffff;fill-opacity:1"
     id="g25"
     transform="translate(3.122323,-41)">
                <path
   id="path23"
   style="fill:#ffffff;fill-opacity:1"
   d="m 345.118,419.496 v -22.297 h 1.938 v 27.125 l -0.918,0.274 -14.87,-22.675 v 22.451 h -1.9 v -27.275 l 0.919,-0.274 z" />
            </g><g
     style="fill:#ffffff;fill-opacity:1"
     id="g29"
     transform="translate(3.122323,-41)">
                <path
   id="path27"
   style="fill:#ffffff;fill-opacity:1"
   d="m 368.081,397.199 h -4.888 v 27.25 h 4.888 c 2.54,0 4.86,-0.598 6.959,-1.79 2.103,-1.194 3.764,-2.823 4.984,-4.887 1.22,-2.064 1.832,-4.343 1.832,-6.836 0,-2.465 -0.617,-4.755 -1.849,-6.87 -1.232,-2.113 -2.905,-3.786 -5.018,-5.018 -2.115,-1.232 -4.417,-1.849 -6.908,-1.849 z m -2.988,25.35 h 2.95 c 2.184,0 4.177,-0.514 5.977,-1.546 1.799,-1.032 3.226,-2.435 4.281,-4.21 1.054,-1.772 1.58,-3.725 1.58,-5.857 0,-2.134 -0.527,-4.106 -1.582,-5.917 -1.056,-1.812 -2.497,-3.252 -4.321,-4.32 -1.822,-1.067 -3.801,-1.6 -5.935,-1.6 h -2.95 z" />
            </g><g
     style="fill:#ffffff;fill-opacity:1"
     id="g33"
     transform="translate(3.122323,-41)">
                <path
   id="path31"
   style="fill:#ffffff;fill-opacity:1"
   d="m 399.518,415.261 v 9.188 h -1.9 v -27.25 h 6.913 c 1.591,0 3.063,0.398 4.416,1.194 1.349,0.794 2.421,1.865 3.215,3.215 0.795,1.352 1.194,2.836 1.194,4.453 0,1.806 -0.537,3.46 -1.612,4.96 -0.961,1.341 -2.153,2.376 -3.574,3.106 l 5.238,10.322 h -2.133 l -4.898,-9.609 c -0.965,0.281 -1.931,0.421 -2.896,0.421 z m 0,-1.975 h 3.925 c 1.369,0 2.668,-0.319 3.895,-0.956 1.222,-0.634 2.197,-1.502 2.925,-2.606 0.721,-1.093 1.08,-2.314 1.08,-3.663 0,-1.235 -0.309,-2.39 -0.927,-3.462 -0.619,-1.075 -1.454,-1.928 -2.505,-2.559 -1.046,-0.628 -2.185,-0.941 -3.418,-0.941 h -4.975 z" />
            </g><g
     style="fill:#ffffff;fill-opacity:1"
     id="g37"
     transform="translate(3.122323,-41)">
                <path
   id="path35"
   style="fill:#ffffff;fill-opacity:1"
   d="m 441.131,424.824 c 2.37,0 4.57,-0.631 6.601,-1.894 2.024,-1.258 3.626,-2.963 4.806,-5.116 1.178,-2.149 1.768,-4.479 1.768,-6.99 0,-2.511 -0.59,-4.841 -1.768,-6.99 -1.18,-2.153 -2.782,-3.858 -4.806,-5.116 -2.031,-1.263 -4.231,-1.894 -6.601,-1.894 -2.396,0 -4.603,0.632 -6.622,1.895 -2.01,1.258 -3.605,2.962 -4.785,5.115 -1.178,2.149 -1.768,4.479 -1.768,6.99 0,2.511 0.59,4.841 1.768,6.99 1.18,2.153 2.775,3.857 4.785,5.115 2.019,1.263 4.226,1.895 6.622,1.895 z m 0,-1.9 c -2.029,0 -3.896,-0.537 -5.603,-1.611 -1.716,-1.08 -3.082,-2.551 -4.102,-4.411 -1.023,-1.863 -1.533,-3.89 -1.533,-6.078 0,-2.189 0.505,-4.216 1.515,-6.081 1.007,-1.858 2.374,-3.328 4.1,-4.408 1.719,-1.074 3.594,-1.611 5.623,-1.611 2.028,0 3.896,0.537 5.602,1.611 1.716,1.08 3.083,2.551 4.103,4.411 1.022,1.863 1.532,3.89 1.532,6.078 0,2.189 -0.504,4.216 -1.514,6.08 -1.008,1.859 -2.374,3.329 -4.101,4.408 -1.719,1.075 -3.593,1.612 -5.622,1.612 z" />
            </g></g><g
   style="fill:#ffffff;fill-opacity:1"
   id="g943"><g
     style="fill:#ffffff;fill-opacity:1"
     id="g8"
     transform="matrix(1,0,0,1.25769,3.75192,-57.7251)">
                <path
   id="path6"
   style="fill:#ffffff;fill-opacity:1"
   d="m 516.60322,222.424 0.119,129.252 3.928,-0.002 -0.118,-129.252 z" />
            </g><path
     id="path39"
     style="fill:#ffffff;fill-opacity:1"
     d="m 493.18501,373.961 v 10.238 h -3.4 v -28.75 h 7.325 c 1.629,0 3.142,0.415 4.538,1.244 1.386,0.823 2.483,1.928 3.292,3.314 0.812,1.392 1.22,2.914 1.22,4.567 0,1.78 -0.484,3.392 -1.448,4.837 -0.94,1.411 -2.179,2.525 -3.719,3.337 -1.535,0.811 -3.143,1.213 -4.821,1.213 z m 0,-3.4 h 2.987 c 1.117,0 2.181,-0.276 3.193,-0.824 1.015,-0.55 1.835,-1.294 2.459,-2.235 0.597,-0.9 0.898,-1.876 0.898,-2.928 0,-1.028 -0.251,-1.985 -0.754,-2.869 -0.503,-0.882 -1.185,-1.581 -2.047,-2.094 -0.858,-0.511 -1.808,-0.762 -2.849,-0.762 h -3.887 z" /><path
     id="path41"
     style="fill:#ffffff;fill-opacity:1"
     d="m 548.63501,384.574 c 1.662,0 3.182,-0.315 4.562,-0.935 1.445,-0.649 2.584,-1.59 3.425,-2.814 0.853,-1.243 1.288,-2.671 1.288,-4.289 0,-3.7 -2.81,-6.627 -8.815,-8.363 -1.902,-0.533 -3.487,-1.247 -4.756,-2.158 -1.034,-0.742 -1.542,-1.776 -1.542,-3.091 0,-1.289 0.519,-2.325 1.551,-3.112 1.158,-0.881 2.604,-1.301 4.324,-1.301 1.401,0 2.642,0.281 3.719,0.863 1.03,0.556 1.824,1.418 2.401,2.571 l 0.539,1.078 3.062,-1.392 -0.521,-1.14 c -0.787,-1.718 -2.042,-3.062 -3.775,-4.023 -1.674,-0.929 -3.482,-1.394 -5.425,-1.394 -1.599,0 -3.093,0.297 -4.482,0.887 -1.457,0.618 -2.616,1.528 -3.484,2.721 -0.89,1.221 -1.346,2.658 -1.346,4.317 0,2.021 0.808,3.804 2.467,5.327 1.503,1.38 3.624,2.448 6.384,3.158 1.685,0.439 3.219,1.108 4.595,2.01 1.111,0.728 1.666,1.755 1.666,3.08 0,0.897 -0.234,1.687 -0.721,2.364 -0.51,0.71 -1.199,1.25 -2.059,1.63 -0.922,0.408 -1.942,0.606 -3.057,0.606 -1.439,0 -2.766,-0.37 -3.98,-1.111 -1.181,-0.721 -2.037,-1.684 -2.56,-2.896 l -0.478,-1.11 -3.16,1.237 0.467,1.169 c 0.75,1.874 2.014,3.369 3.801,4.479 1.746,1.084 3.714,1.632 5.91,1.632 z" /><path
     id="path43"
     style="fill:#ffffff;fill-opacity:1"
     d="m 585.04701,384.574 c 2.678,0 5.12,-0.733 7.328,-2.195 l 1.045,-0.693 -1.922,-2.884 -1.044,0.716 c -1.614,1.105 -3.417,1.656 -5.407,1.656 -1.882,0 -3.614,-0.503 -5.197,-1.511 -1.612,-1.025 -2.894,-2.408 -3.852,-4.143 -0.961,-1.74 -1.438,-3.639 -1.438,-5.696 0,-2.057 0.477,-3.956 1.438,-5.696 0.958,-1.735 2.24,-3.118 3.852,-4.143 1.583,-1.008 3.315,-1.511 5.197,-1.511 1.96,0 3.817,0.586 5.576,1.744 l 1.038,0.683 1.917,-2.876 -1.064,-0.688 c -2.337,-1.512 -4.827,-2.263 -7.467,-2.263 -2.54,0 -4.879,0.67 -7.019,2.009 -2.118,1.326 -3.8,3.114 -5.044,5.369 -1.239,2.246 -1.862,4.703 -1.862,7.372 0,2.669 0.623,5.126 1.862,7.372 1.244,2.255 2.926,4.043 5.044,5.369 2.14,1.339 4.479,2.009 7.019,2.009 z" /><path
     id="path45"
     style="fill:#ffffff;fill-opacity:1"
     d="m 611.12201,371.236 h 10.738 v -15.787 h 3.4 v 28.75 h -3.4 v -9.488 h -10.738 v 9.488 h -3.4 v -28.75 h 3.4 z" /><g
     style="fill:#ffffff;fill-opacity:1"
     id="g49"
     transform="matrix(1,0,0,1.01424,-1.920987,-46.67872)">
                <rect
   id="rect47"
   style="fill:#ffffff;fill-opacity:1"
   height="28.75"
   width="3.4000001"
   y="396.44901"
   x="642.19299" />
            </g><path
     id="path51"
     style="fill:#ffffff;fill-opacity:1"
     d="m 674.09701,375.98 v -20.531 h 3.438 v 27.875 l -2.295,0.685 -13.493,-20.574 v 20.689 h -3.4 v -28.025 l 2.296,-0.684 z" /><path
     id="path53"
     style="fill:#ffffff;fill-opacity:1"
     d="m 712.98201,382.423 c -2.19,1.433 -4.61,2.151 -7.26,2.151 -2.54,0 -4.879,-0.67 -7.019,-2.009 -2.118,-1.326 -3.8,-3.114 -5.044,-5.369 -1.239,-2.246 -1.862,-4.703 -1.862,-7.372 0,-2.669 0.623,-5.126 1.862,-7.372 1.244,-2.255 2.926,-4.043 5.044,-5.369 2.14,-1.339 4.479,-2.009 7.019,-2.009 2.64,0 5.13,0.751 7.467,2.263 l 1.064,0.688 -1.917,2.876 -1.038,-0.683 c -1.759,-1.158 -3.616,-1.744 -5.576,-1.744 -1.882,0 -3.614,0.503 -5.197,1.511 -1.612,1.025 -2.894,2.408 -3.852,4.143 -0.961,1.74 -1.438,3.639 -1.438,5.696 0,2.057 0.477,3.956 1.438,5.696 0.958,1.735 2.24,3.118 3.852,4.143 1.583,1.008 3.315,1.511 5.197,1.511 1.666,0 3.237,-0.399 4.713,-1.195 v -8.418 h -3.788 v -3.437 h 7.188 v 13.872 z" /><path
     id="path55"
     style="fill:#ffffff;fill-opacity:1"
     d="m 731.87201,380.799 h 11.85 v 3.4 h -15.25 v -28.75 h 15.25 v 3.4 h -11.85 v 5.712 h 11.55 v 3.4 h -11.55 z" /><path
     id="path57"
     style="fill:#ffffff;fill-opacity:1"
     d="m 761.76001,375.011 v 9.188 h -3.4 v -28.75 h 7.662 c 1.729,0 3.327,0.433 4.797,1.298 1.461,0.859 2.621,2.019 3.481,3.481 0.863,1.467 1.297,3.078 1.297,4.833 0,1.965 -0.582,3.765 -1.752,5.397 -0.882,1.231 -1.945,2.221 -3.189,2.972 l 5.465,10.769 h -3.815 l -4.832,-9.481 c -0.833,0.196 -1.668,0.293 -2.502,0.293 z m 0,-3.475 h 3.175 c 1.247,0 2.43,-0.291 3.549,-0.871 1.104,-0.574 1.987,-1.357 2.645,-2.354 0.639,-0.97 0.956,-2.053 0.956,-3.25 0,-1.102 -0.276,-2.131 -0.827,-3.088 -0.554,-0.962 -1.301,-1.725 -2.241,-2.29 -0.928,-0.557 -1.939,-0.834 -3.032,-0.834 h -4.225 z" /></g>
    </g>
</svg>
